<svg width="128" height="128" viewBox="0 0 128 128" fill="none" xmlns="http://www.w3.org/2000/svg">
<path d="M93.1377 107.315C90.3166 107.315 88.0177 104.934 88.0177 102.011C88.0177 99.0924 90.3166 96.7167 93.1377 96.7167C95.9588 96.7167 98.2577 99.0924 98.2577 102.011C98.2577 104.929 95.9588 107.315 93.1377 107.315ZM36.5822 107.31C33.761 107.31 31.4622 104.929 31.4622 102.006C31.4622 99.0873 33.761 96.7116 36.5822 96.7116C39.4033 96.7116 41.7022 99.0873 41.7022 102.006C41.7022 104.924 39.4033 107.31 36.5822 107.31ZM94.9706 75.3919L105.2 57.0521C105.482 56.5464 105.559 55.9516 105.414 55.391C105.269 54.8304 104.914 54.3472 104.422 54.0415C104.179 53.8989 103.91 53.8066 103.631 53.7701C103.352 53.7336 103.068 53.7537 102.797 53.8292C102.525 53.9047 102.272 54.034 102.051 54.2095C101.831 54.3849 101.648 54.6029 101.514 54.8505L91.1614 73.4207C82.9332 69.5568 73.9501 67.5667 64.8599 67.5942C55.3726 67.5942 46.4791 69.678 38.5585 73.4207L28.211 54.8607C28.0766 54.6132 27.8939 54.3952 27.6735 54.2197C27.4532 54.0443 27.1998 53.915 26.9285 53.8395C26.6571 53.764 26.3733 53.7439 26.094 53.7804C25.8148 53.8168 25.5457 53.9091 25.3028 54.0518C24.8111 54.3574 24.4559 54.8407 24.311 55.4012C24.1661 55.9618 24.2426 56.5567 24.5246 57.0623L34.7543 75.4022C17.1876 85.2889 5.17096 103.695 3.41992 125.44H126.3C124.544 103.695 112.527 85.2889 94.9706 75.4022" fill="black"/>
</svg>
