<svg width="128" height="128" viewBox="0 0 128 128" fill="none" xmlns="http://www.w3.org/2000/svg">
<path d="M86.2193 2.56006C87.3764 10.3169 84.1969 17.9098 80.0036 23.2858C75.5133 29.0458 67.7873 33.5105 60.3121 33.2801C58.9553 25.8561 62.4522 18.2119 66.6967 13.0561C71.3713 7.3831 79.3789 3.02598 86.2193 2.56006ZM101.236 109.041C104.667 103.844 105.931 101.217 108.589 95.3345C89.3015 88.0436 86.1988 60.7898 105.286 50.3194C99.4647 43.0644 91.2829 38.8609 83.5671 38.8609C77.9914 38.8609 74.177 40.3047 70.7057 41.6154C67.818 42.706 65.1761 43.7095 61.9556 43.7095C58.474 43.7095 55.402 42.6087 52.1764 41.4567C48.6231 40.1972 44.9009 38.8711 40.2724 38.8711C31.5991 38.8711 22.3729 44.1293 16.5309 53.1405C8.3031 65.8023 9.70086 89.6257 23.0333 109.932C27.8103 117.202 34.1796 125.363 42.5098 125.44C45.9607 125.471 48.2596 124.447 50.7479 123.341C53.5997 122.071 56.6973 120.689 62.0631 120.663C67.4596 120.632 70.506 122.03 73.3169 123.315C75.7386 124.426 77.9863 125.455 81.4167 125.425C89.7469 125.348 96.4695 116.301 101.236 109.041Z" fill="black"/>
</svg>
