<svg width="128" height="128" viewBox="0 0 128 128" fill="none" xmlns="http://www.w3.org/2000/svg">
<path fill-rule="evenodd" clip-rule="evenodd" d="M111.154 100.187C110.113 99.5491 109.135 98.8118 108.236 97.9856C107.928 97.6784 108.031 96.6134 108.133 95.615C108.184 95.1337 108.236 94.6678 108.236 94.3043C108.763 92.2512 108.389 90.0701 107.212 88.3139C106.96 88.0822 106.685 87.8764 106.392 87.6995V84.4227C106.197 71.7909 101.263 59.6936 92.5684 50.5283C89.1379 47.2792 86.8105 43.0378 85.9124 38.399V37.2214C85.9124 30.1558 85.9124 15.4102 78.2324 7.68414C76.5605 6.00479 74.5633 4.68447 72.3632 3.80408C70.1631 2.92368 67.8064 2.50175 65.4376 2.56414C54.6856 2.56414 47.5176 7.68414 47.5176 33.2841C47.0605 39.9658 44.972 46.4335 41.435 52.1206C40.0526 54.783 38.6702 57.5478 37.4414 60.4662C33.9895 68.3466 31.3642 76.5638 29.6078 84.9859C28.5082 85.6266 27.5742 86.5161 26.8806 87.5832C26.1871 88.6502 25.7533 89.8649 25.6142 91.1299L25.2046 92.8195C24.3092 93.1499 23.383 93.39 22.4398 93.5363C19.3678 94.1507 14.2478 95.1747 14.2478 99.8339C14.2683 101.093 14.4048 102.339 14.6574 103.572C15.2617 106.373 15.1205 109.284 14.2478 112.014C14.2188 112.235 14.2188 112.459 14.2478 112.68C14.2478 118.455 22.8494 119.49 28.6708 120.191L29.6078 120.309H31.8606C33.2601 120.725 34.6083 121.271 35.9054 121.947C39.4986 123.895 43.4553 125.08 47.5278 125.429C48.3602 125.42 49.1817 125.238 49.9398 124.894C50.6979 124.551 51.3761 124.052 51.931 123.432H52.187C56.3142 121.402 60.8482 120.334 65.4478 120.309H81.1099C81.3761 121.348 81.883 122.316 82.5947 123.125C84.1307 124.712 86.2811 125.552 88.4827 125.429C90.9913 125.358 93.4502 124.712 95.6695 123.54C97.8888 122.368 99.8092 120.702 101.283 118.67L102.921 116.981C104.739 115.598 106.807 114.574 109.009 113.96C112.695 112.629 116.484 111.246 116.484 107.509C116.484 103.812 113.627 101.867 111.236 100.238L111.154 100.187ZM70.5524 17.9241C73.522 17.9241 75.6724 21.0985 75.6724 25.5017C75.6724 29.9049 73.9828 32.3625 71.5252 32.9257C72.028 32.5022 72.4243 31.9665 72.6822 31.3618C72.9401 30.757 73.0524 30.1002 73.01 29.4441C73.01 27.3449 71.8836 25.6041 70.5524 25.6041C69.2212 25.6041 68.0948 27.2937 68.0948 29.4441C68.0525 30.1002 68.1647 30.757 68.4226 31.3618C68.6805 31.9665 69.0768 32.5022 69.5796 32.9257C67.122 32.3113 65.4324 29.3417 65.4324 25.5017C65.4324 21.6617 67.5828 17.9241 70.5524 17.9241ZM60.3124 43.5241C64.8679 42.616 69.1468 40.652 72.8052 37.7897C69.9766 35.3952 66.5373 33.8351 62.8724 33.2841C58.9368 33.6429 55.2808 35.4709 52.6324 38.4041C54.7419 40.7081 57.3736 42.4643 60.3124 43.5241ZM55.1924 17.9241C58.162 17.9241 60.3124 21.0985 60.3124 25.5017C60.3124 29.9049 58.6228 32.3113 56.1652 32.9257C56.668 32.5022 57.0643 31.9665 57.3222 31.3618C57.5801 30.757 57.6924 30.1002 57.65 29.4441C57.65 27.3449 56.5236 25.6041 55.1924 25.6041C53.8612 25.6041 52.7348 27.2937 52.7348 29.4441C52.6925 30.1002 52.8047 30.757 53.0626 31.3618C53.3205 31.9665 53.7168 32.5022 54.2196 32.9257C51.762 32.3113 50.0724 29.3929 50.0724 25.5017C50.0724 21.6105 52.2228 17.9241 55.1924 17.9241ZM47.5124 120.309C48.1268 120.309 48.5876 119.797 48.8948 118.824C49.2424 116.542 48.9026 114.208 47.9187 112.12C46.9348 110.032 45.3514 108.284 43.3704 107.099C39.84 103.982 37.132 100.043 35.4856 95.6304C34.6573 93.4205 33.4439 91.375 31.9016 89.5888C31.5432 89.5888 31.2872 89.5888 30.6216 92.3024C30.3886 93.8495 29.733 95.3024 28.7272 96.5008C27.2343 97.6205 25.4639 98.3109 23.6072 98.4976C22.1162 98.6541 20.6714 99.1067 19.3576 99.8288C19.3985 100.795 19.518 101.75 19.716 102.696C20.469 106.079 20.3811 109.595 19.46 112.936C19.972 113.653 22.3272 114.574 29.956 115.189H32.8232C34.6152 115.663 36.3218 116.346 37.9432 117.237C40.9055 118.871 44.1572 119.915 47.5176 120.309M81.5143 103.464C73.9879 111.042 58.9352 110.53 52.2792 109.506C50.8752 106.863 48.8556 104.598 46.3912 102.901C43.6471 100.245 41.5321 97.0083 40.2011 93.4288C39.1496 90.3858 37.3954 87.6336 35.0811 85.3955C36.7648 77.5284 39.2171 69.8456 42.4027 62.4579C43.0939 60.7171 43.908 59.1043 44.7579 57.4301C45.2357 56.4982 45.7136 55.5305 46.1915 54.527C48.062 51.083 49.6662 47.516 51.0043 43.8262C53.6203 46.2404 56.8398 47.9032 60.3227 48.639C65.4375 47.3488 70.322 45.2752 74.8123 42.495C82.2855 56.5997 86.1036 72.3528 85.9176 88.3139C83.1765 92.8867 81.6601 98.0885 81.5143 103.418V103.464ZM99.4855 113.448C101.8 111.488 104.503 110.04 107.416 109.198V109.147C108.906 108.738 110.325 108.098 111.615 107.253C111.512 106.69 110.284 105.819 108.338 104.539C106.997 103.714 105.745 102.753 104.6 101.672C103.564 100.554 102.964 99.0999 102.911 97.576C101.87 98.4375 100.67 99.0846 99.3778 99.48C98.0861 99.8755 96.7289 100.011 95.3844 99.88H93.5924C92.6363 99.8982 91.6869 99.7163 90.8051 99.346C89.9234 98.9756 89.1288 98.4251 88.4724 97.7296C88.2287 97.4569 88.0062 97.1659 87.8068 96.8592C87.346 99.1632 85.9124 113.653 85.9124 115.189L85.8612 116.059L85.851 116.264C85.7895 117.17 85.6667 118.942 86.3784 119.746C86.6696 119.983 87.0053 120.159 87.3659 120.265C87.7264 120.37 88.1044 120.403 88.4776 120.36C90.3173 120.301 92.1169 119.807 93.728 118.917C95.3392 118.026 96.7159 116.766 97.7447 115.24L99.4855 113.448Z" fill="black"/>
</svg>
