<svg width="128" height="128" viewBox="0 0 128 128" fill="none" xmlns="http://www.w3.org/2000/svg">
<g clip-path="url(#clip0_44_283)">
<path fill-rule="evenodd" clip-rule="evenodd" d="M64 128C28.656 128 0 99.344 0 64C0 28.656 28.656 0 64 0C99.344 0 128 28.656 128 64C128 99.344 99.344 128 64 128ZM29.4133 82.6133C29.4133 93.7013 37.9573 101.765 48.6133 101.765C59.2213 101.765 68.0053 93.5573 68.0053 82.4693C68.0053 71.4773 59.4133 63.2213 48.7573 63.2213C46.209 63.2071 43.6833 63.6994 41.3268 64.6695C38.9703 65.6396 36.8301 67.0682 35.0303 68.8724C33.2306 70.6766 31.8073 72.8204 30.843 75.1792C29.8788 77.5381 29.3928 80.0651 29.4133 82.6133ZM35.6053 82.4693C35.6053 74.8373 41.3173 68.6933 48.7093 68.6933C56.0533 68.6933 61.8133 74.8373 61.8133 82.4693C61.8133 90.1013 56.0533 96.2933 48.7093 96.2933C41.3173 96.2933 35.6053 90.1013 35.6053 82.4693ZM83.2427 101.765C91.552 101.765 96.256 96.2453 96.256 90.7733C96.256 85.2053 92.704 81.2213 85.984 79.8773L81.2267 78.9653C78.208 78.3413 76.48 76.0853 76.48 73.9733C76.48 71.0933 79.3067 68.5013 82.96 68.5013C86.944 68.5013 89.488 71.4773 90.16 74.1653L95.6267 72.4373C94.864 68.3573 91.36 63.2213 82.864 63.2213C76.0907 63.2213 70.4267 68.3093 70.4267 74.5013C70.4267 79.3973 73.7867 83.4773 79.9787 84.7253L84.5867 85.6853C87.76 86.3573 90.1547 88.0853 90.1547 91.1573C90.1547 94.3253 87.0827 96.4373 83.344 96.4373C78.8267 96.4373 75.8507 93.6053 75.0347 89.2373L69.3333 90.7733C69.856 96.1013 74.464 101.765 83.2533 101.765H83.2427ZM39.808 42.1333V53.3333H44.2133V42.208C44.2133 39.184 45.856 37.168 48.6187 37.168C51.68 37.168 52.8747 39.2587 52.8747 42.096V53.3333H57.3173V41.0133C57.3173 36.496 55.1147 32.9493 50.0747 32.9493C47.0133 32.9493 45.072 34.0693 43.1307 36.2347C42.0107 34.2187 40.032 32.9493 36.9707 32.9493C35.4027 32.9493 32.9387 33.5467 31.0347 36.0853V33.3973H26.704V53.3333H31.1467V42.2453C31.1467 39.2213 32.7893 37.168 35.5147 37.168C38.576 37.168 39.808 39.3333 39.808 42.1333ZM78.784 53.3333V40.64C78.784 39.296 78.5973 38.1387 78.112 37.056C76.8053 34.1813 74.0053 32.9867 70.6453 32.9867C69.1893 32.9867 67.7707 33.248 66.6133 33.7707C63.8507 34.9653 62.32 37.504 62.1333 39.184L66.1653 40.08C66.5013 38.176 68.1067 36.7947 70.5333 36.7947C73.1467 36.7947 74.4533 38.2507 74.4533 39.8187C74.4533 40.7893 73.9307 41.4987 72.5867 41.4987H70.1227C66.6507 41.4987 61.8347 42.9547 61.8347 47.584V47.808C61.8347 51.2427 64.672 53.6693 68.5547 53.6693C70.4213 53.6693 72.96 53.0347 74.416 50.608V53.3333H78.784ZM74.416 45.2693C74.416 48.256 72.4747 50.1227 69.4507 50.1227C67.584 50.1227 66.2773 49.04 66.2773 47.3973C66.2773 45.5307 68.4427 44.6347 70.1227 44.6347H74.416V45.2693ZM93.568 53.6693C98.9813 53.6693 102.08 50.1973 102.976 47.136L98.9067 45.8293C98.3093 47.36 97.0773 49.6373 93.6427 49.6373C90.2453 49.6373 87.744 46.9867 87.744 43.2533C87.744 39.4827 90.3573 37.0187 93.6053 37.0187C96.928 37.0187 98.384 39.184 98.832 40.752L102.864 39.408C102.005 36.048 98.5707 32.9867 93.6427 32.9867C87.7067 32.9867 83.1893 37.6533 83.1893 43.328C83.1893 49.1893 87.7067 53.6693 93.568 53.6693Z" fill="black"/>
</g>
<defs>
<clipPath id="clip0_44_283">
<rect width="128" height="128" fill="white"/>
</clipPath>
</defs>
</svg>
