<svg width="118" height="84" viewBox="0 0 118 84" fill="none" xmlns="http://www.w3.org/2000/svg">
<g clip-path="url(#clip0_178_483)">
<path d="M35.8576 32.8812C35.8576 34.1775 35.9986 35.2286 36.2454 35.9994C36.5274 36.7701 36.8799 37.611 37.3734 38.5219C37.5497 38.8022 37.6202 39.0825 37.6202 39.3277C37.6202 39.6781 37.4087 40.0284 36.9504 40.3788L34.7296 41.8503C34.4123 42.0605 34.0951 42.1656 33.8131 42.1656C33.4605 42.1656 33.108 41.9904 32.7555 41.6751C32.262 41.1496 31.839 40.589 31.4865 40.0284C31.134 39.4328 30.7815 38.7672 30.3937 37.9614C27.6441 41.1846 24.1895 42.7962 20.0299 42.7962C17.0688 42.7962 14.707 41.9554 12.9797 40.2737C11.2524 38.592 10.3711 36.3497 10.3711 33.5469C10.3711 30.5689 11.4286 28.1515 13.5789 26.3296C15.7293 24.5078 18.5846 23.5969 22.2155 23.5969C23.414 23.5969 24.6478 23.702 25.9521 23.8772C27.2564 24.0523 28.5959 24.3326 30.0059 24.6479V22.0904C30.0059 19.4277 29.4419 17.5708 28.3491 16.4847C27.2211 15.3986 25.3175 14.8731 22.6032 14.8731C21.3694 14.8731 20.1004 15.0132 18.7961 15.3285C17.4918 15.6439 16.2228 16.0292 14.989 16.5197C14.425 16.765 14.002 16.9051 13.7552 16.9752C13.5084 17.0453 13.3322 17.0803 13.1912 17.0803C12.6977 17.0803 12.4509 16.73 12.4509 15.9942V14.2775C12.4509 13.7169 12.5214 13.2965 12.6977 13.0512C12.8739 12.806 13.1912 12.5608 13.6847 12.3155C14.9185 11.6849 16.399 11.1593 18.1263 10.7389C19.8536 10.2835 21.6867 10.0732 23.6255 10.0732C27.8204 10.0732 30.8872 11.0192 32.8613 12.9111C34.8001 14.803 35.7871 17.6759 35.7871 21.5298V32.8812H35.8576ZM21.5457 38.2066C22.709 38.2066 23.9075 37.9964 25.1765 37.576C26.4456 37.1555 27.5736 36.3848 28.5254 35.3337C29.0894 34.668 29.5124 33.9323 29.7239 33.0914C29.9354 32.2506 30.0764 31.2346 30.0764 30.0434V28.5719C29.0542 28.3266 27.9614 28.1164 26.8333 27.9763C25.7053 27.8361 24.6125 27.7661 23.5197 27.7661C21.1579 27.7661 19.4306 28.2215 18.2673 29.1675C17.104 30.1134 16.54 31.4448 16.54 33.1965C16.54 34.8432 16.963 36.0694 17.8443 36.9103C18.6903 37.7862 19.9241 38.2066 21.5457 38.2066ZM49.8523 41.9904C49.2178 41.9904 48.7948 41.8853 48.5128 41.6401C48.2308 41.4298 47.984 40.9394 47.7725 40.2737L39.4885 13.1914C39.277 12.4907 39.1712 12.0352 39.1712 11.79C39.1712 11.2294 39.4532 10.9141 40.0172 10.9141H43.4719C44.1416 10.9141 44.5999 11.0192 44.8466 11.2644C45.1287 11.4747 45.3402 11.9652 45.5517 12.6308L51.4739 35.8242L56.973 12.6308C57.1493 11.9301 57.3608 11.4747 57.6428 11.2644C57.9248 11.0542 58.4183 10.9141 59.0528 10.9141H61.8729C62.5427 10.9141 63.001 11.0192 63.283 11.2644C63.565 11.4747 63.8117 11.9652 63.9527 12.6308L69.5224 36.1045L75.6208 12.6308C75.8323 11.9301 76.0791 11.4747 76.3259 11.2644C76.6079 11.0542 77.0661 10.9141 77.7007 10.9141H80.979C81.543 10.9141 81.8603 11.1944 81.8603 11.79C81.8603 11.9652 81.825 12.1403 81.7898 12.3505C81.7545 12.5608 81.684 12.841 81.543 13.2264L73.0475 40.3087C72.836 41.0094 72.5893 41.4649 72.3072 41.6751C72.0252 41.8853 71.567 42.0254 70.9677 42.0254H67.9361C67.2663 42.0254 66.8081 41.9203 66.5261 41.6751C66.2441 41.4298 65.9973 40.9744 65.8563 40.2737L60.3924 17.6759L54.9637 40.2386C54.7874 40.9394 54.5759 41.3948 54.2939 41.6401C54.0119 41.8853 53.5184 41.9904 52.8839 41.9904H49.8523ZM95.1499 42.9364C93.3169 42.9364 91.4838 42.7262 89.7213 42.3057C87.9587 41.8853 86.5839 41.4298 85.6674 40.9043C85.1034 40.589 84.7156 40.2386 84.5746 39.9233C84.4336 39.608 84.3631 39.2577 84.3631 38.9423V37.1555C84.3631 36.4198 84.6451 36.0694 85.1739 36.0694C85.3854 36.0694 85.5969 36.1045 85.8084 36.1745C86.0199 36.2446 86.3372 36.3848 86.6897 36.5249C87.8882 37.0504 89.1925 37.4709 90.5673 37.7511C91.9773 38.0314 93.3521 38.1716 94.7622 38.1716C96.983 38.1716 98.7103 37.7862 99.9088 37.0154C101.107 36.2446 101.742 35.1235 101.742 33.687C101.742 32.7061 101.425 31.9002 100.79 31.2346C100.156 30.5689 98.9571 29.9733 97.2297 29.4127L92.1183 27.8361C89.545 27.0303 87.6415 25.8391 86.4782 24.2625C85.3149 22.721 84.7156 21.0043 84.7156 19.1824C84.7156 17.7109 85.0329 16.4146 85.6674 15.2935C86.3019 14.1724 87.1479 13.1914 88.2055 12.4206C89.263 11.6148 90.4615 11.0192 91.8716 10.5988C93.2816 10.1784 94.7622 10.0032 96.3132 10.0032C97.0888 10.0032 97.8995 10.0382 98.675 10.1433C99.4858 10.2484 100.226 10.3886 100.966 10.5287C101.671 10.7039 102.341 10.8791 102.976 11.0893C103.61 11.2995 104.104 11.5097 104.456 11.7199C104.95 12.0002 105.302 12.2805 105.514 12.5958C105.725 12.8761 105.831 13.2615 105.831 13.752V15.3986C105.831 16.1344 105.549 16.5197 105.02 16.5197C104.738 16.5197 104.28 16.3796 103.681 16.0993C101.671 15.1884 99.4153 14.7329 96.9125 14.7329C94.9032 14.7329 93.3169 15.0483 92.2241 15.7139C91.1313 16.3796 90.5673 17.3956 90.5673 18.8321C90.5673 19.8131 90.9198 20.6539 91.6248 21.3196C92.3299 21.9852 93.6341 22.6509 95.5024 23.2465L100.508 24.8231C103.046 25.6289 104.879 26.7501 105.972 28.1865C107.065 29.6229 107.594 31.2696 107.594 33.0914C107.594 34.598 107.276 35.9643 106.677 37.1555C106.043 38.3467 105.196 39.3978 104.104 40.2386C103.011 41.1145 101.707 41.7452 100.191 42.2006C98.6045 42.6911 96.9477 42.9364 95.1499 42.9364Z" fill="#252F3E"/>
<path d="M101.812 59.9635C90.2144 68.4771 73.3644 72.9966 58.8762 72.9966C38.5716 72.9966 20.2763 65.5341 6.45783 53.1316C5.36505 52.1506 6.35208 50.8193 7.65637 51.5901C22.6028 60.2087 41.0391 65.429 60.11 65.429C72.9766 65.429 87.1123 62.7663 100.12 57.3008C102.059 56.4249 103.716 58.5621 101.812 59.9635Z" fill="#FF9900"/>
<path d="M106.641 54.4981C105.161 52.6062 96.8416 53.5872 93.0698 54.0427C91.9417 54.1828 91.7655 53.2018 92.7878 52.4661C99.415 47.8414 110.308 49.1728 111.577 50.7143C112.846 52.2909 111.224 63.1168 105.02 68.302C104.068 69.1078 103.152 68.6874 103.575 67.6364C104.985 64.1679 108.122 56.355 106.641 54.4981Z" fill="#FF9900"/>
</g>
<defs>
<clipPath id="clip0_178_483">
<rect width="106" height="63" fill="white" transform="translate(6 10)"/>
</clipPath>
</defs>
</svg>
