<svg width="85" height="84" viewBox="0 0 85 84" fill="none" xmlns="http://www.w3.org/2000/svg">
<path d="M61.4597 43.8668C61.3737 34.8493 68.8267 30.5168 69.1619 30.3105C64.967 24.1813 58.451 23.3389 56.13 23.2443C50.5853 22.6769 45.3072 26.5109 42.4876 26.5109C39.668 26.5109 35.3269 23.3217 30.7279 23.4162C24.6761 23.5022 19.0971 26.9321 15.9766 32.3478C9.70133 43.2307 14.3777 59.3917 20.5069 68.2373C23.507 72.5613 27.0659 77.4354 31.7594 77.2549C36.2811 77.0743 37.9832 74.3321 43.4332 74.3321C48.8833 74.3321 50.422 77.2549 55.193 77.1689C60.0499 77.0743 63.1273 72.7504 66.1017 68.4093C69.523 63.3804 70.9414 58.5235 71.0273 58.2656C70.9156 58.2226 61.5628 54.638 61.4597 43.8668Z" fill="black"/>
<path d="M52.4953 17.3815C54.9882 14.3642 56.6645 10.1778 56.2089 6C52.6242 6.14614 48.2831 8.38977 45.7128 11.4071C43.409 14.0719 41.3888 18.3357 41.939 22.4275C45.9191 22.737 50.0109 20.3902 52.4953 17.3815Z" fill="black"/>
</svg>
