<svg width="158" height="84" viewBox="0 0 158 84" fill="none" xmlns="http://www.w3.org/2000/svg">
<path d="M28.5674 45.2956H34.8435V54.1105C32.8853 54.7396 30.4127 55.0847 27.8425 55.0847C17.4259 55.0847 11.3037 46.1646 11.3037 37.4529C11.3037 28.9087 16.8413 22.9154 24.5671 22.9154C29.4558 22.9154 32.3004 24.5715 34.8453 26.8785V29.7545L39.6171 24.9827C36.5989 22.9407 32.2284 21 25.9816 21C12.2682 21 6 30.8108 6 38.8734C6 50.3497 14.359 57.2632 24.8634 57.2632C29.9567 57.2632 34.4791 56.4857 39.703 55.0321V45.9249C39.703 45.4592 39.9076 45.1397 40.2135 44.8591L41.8619 43.2107H30.668L28.5674 45.2956Z" fill="url(#paint0_linear_178_482)"/>
<path d="M56.6863 33.3164C48.793 33.3164 43.9023 39.0841 43.9023 45.2062C43.9023 50.4905 47.8424 56.7644 55.8251 56.7644C63.504 56.7644 68.2154 50.9854 68.2154 44.7562C68.2154 38.9536 63.6112 33.3185 56.6863 33.3185V33.3164ZM55.3767 34.998C60.9417 34.998 63.42 42.2483 63.42 47.4195C63.42 55.1102 57.6506 55.2621 56.9609 55.2621C54.3207 55.2621 52.4754 53.6665 51.0941 51.5736C49.8783 49.6448 48.6897 46.0614 48.6897 42.56C48.6897 39.0722 49.8314 37.3693 51.628 36.1164C53.0972 35.1772 54.4728 34.998 55.3748 34.998H55.3767Z" fill="url(#paint1_linear_178_482)"/>
<path d="M108.277 33.3142C101.383 33.3142 97.6541 37.6788 97.6541 42.552C97.6541 46.2619 100.312 50.4472 105.795 50.4472H107.182C107.182 50.4472 106.804 51.365 106.802 52.2515C106.802 53.5591 107.272 54.2935 108.269 55.4236C98.8347 55.9984 95.043 59.8038 95.043 63.8937C95.043 67.4752 98.4725 71 105.68 71C114.212 71 118.631 66.263 118.631 61.6141C118.631 58.3368 116.998 56.5403 112.864 53.4422C111.648 52.4972 111.412 51.8953 111.412 51.188C111.412 50.1748 112.018 49.5043 112.24 49.2512C112.632 48.8381 113.31 48.3666 113.563 48.1406C114.952 46.9637 116.915 45.2219 116.915 41.7457C116.915 39.3607 115.923 37.309 113.663 35.3878H116.422L118.495 33.3146H108.277V33.3142ZM106.376 34.8652C107.627 34.8652 108.671 35.3075 109.774 36.2253C110.997 37.3281 112.952 40.2917 112.952 43.9588C112.952 47.9161 109.877 48.9995 108.213 48.9995C107.399 48.9995 106.423 48.7715 105.596 48.2065C103.761 47.0161 101.939 43.8477 101.939 40.0774C101.939 36.6753 103.965 34.8652 106.376 34.8652ZM109.106 56.9259C109.631 56.9259 110.01 56.969 110.01 56.969C110.01 56.969 111.251 57.8555 112.118 58.5178C114.136 60.1136 115.395 61.3334 115.395 63.5061C115.395 66.4931 112.624 68.8352 108.137 68.8352C103.211 68.8352 99.4467 66.5418 99.4467 62.797C99.4467 59.6949 102.026 57.0251 109.106 56.9259Z" fill="url(#paint2_linear_178_482)"/>
<path d="M119.99 56.0805H129.454L130.895 54.6388L128.181 54.2998C127.45 54.2101 127.016 53.5788 127.016 52.967V24.3809C127.016 23.8178 127.277 23.5294 127.468 23.346L129.175 21.6392H121.104L119.004 23.7396H122.141V53.3506C122.141 53.7715 122.008 54.0579 121.724 54.3521L119.99 56.0805Z" fill="url(#paint3_linear_178_482)"/>
<path d="M142.277 33.3164C136.992 33.3164 131.379 37.3439 131.379 44.5747C131.379 50.5466 135.406 56.7644 142.931 56.7644C144.808 56.7644 146.353 56.523 147.801 55.8586C149.354 55.1435 150.848 53.9822 151.939 52.5228C149.88 53.5613 148.2 54.2433 145.969 54.2433C141.729 54.2433 137.641 51.1842 136.211 45.5609L151.189 39.5069C150.324 36.4225 147.884 33.3164 142.279 33.3164H142.277ZM141.298 34.9707C144.134 34.9707 146.183 37.303 146.183 39.1287C146.183 39.7191 145.813 40.0309 145.08 40.3193L135.874 44.0428C135.874 44.0428 135.625 42.8835 135.625 41.6306C135.625 36.3756 139.424 34.9707 141.298 34.9707Z" fill="url(#paint4_linear_178_482)"/>
<path d="M83.4675 33.3164C75.5742 33.3164 70.6836 39.0841 70.6836 45.2062C70.6836 50.4905 74.6236 56.7644 82.6063 56.7644C90.2853 56.7644 94.9967 50.9854 94.9967 44.7562C94.9967 38.9536 90.3924 33.3185 83.4675 33.3185V33.3164ZM82.158 34.998C87.7231 34.998 90.2013 42.2483 90.2013 47.4195C90.2013 55.1102 84.4319 55.2621 83.7421 55.2621C81.1019 55.2621 79.2567 53.6665 77.8755 51.5736C76.6596 49.6448 75.471 46.0614 75.471 42.56C75.471 39.0722 76.6126 37.3693 78.4093 36.1164C79.8784 35.1772 81.2541 34.998 82.156 34.998H82.158Z" fill="url(#paint5_linear_178_482)"/>
<defs>
<linearGradient id="paint0_linear_178_482" x1="23.8418" y1="20.8973" x2="23.8418" y2="57.2612" gradientUnits="userSpaceOnUse">
<stop stop-color="#196EEF"/>
<stop offset="0.5" stop-color="#186DEE"/>
<stop offset="1" stop-color="#1065E7"/>
</linearGradient>
<linearGradient id="paint1_linear_178_482" x1="55.9705" y1="33.2609" x2="55.9705" y2="56.7743" gradientUnits="userSpaceOnUse">
<stop stop-color="#DE5744"/>
<stop offset="0.5" stop-color="#DB4632"/>
<stop offset="1" stop-color="#D13D29"/>
</linearGradient>
<linearGradient id="paint2_linear_178_482" x1="106.75" y1="33.2606" x2="106.75" y2="71.0143" gradientUnits="userSpaceOnUse">
<stop stop-color="#1A6FEF"/>
<stop offset="0.25" stop-color="#1E72EF"/>
<stop offset="0.5" stop-color="#166BEC"/>
<stop offset="0.75" stop-color="#1267E9"/>
<stop offset="1" stop-color="#1063E5" stop-opacity="0.87"/>
</linearGradient>
<linearGradient id="paint3_linear_178_482" x1="124.863" y1="21.5581" x2="124.863" y2="56.1136" gradientUnits="userSpaceOnUse">
<stop stop-color="#0AA561"/>
<stop offset="0.5" stop-color="#009B58"/>
<stop offset="1" stop-color="#00914B"/>
</linearGradient>
<linearGradient id="paint4_linear_178_482" x1="141.573" y1="33.2609" x2="141.573" y2="56.7096" gradientUnits="userSpaceOnUse">
<stop stop-color="#DE5644"/>
<stop offset="0.5" stop-color="#DA4531"/>
<stop offset="1" stop-color="#CE3A28"/>
</linearGradient>
<linearGradient id="paint5_linear_178_482" x1="82.7524" y1="33.3119" x2="82.7524" y2="56.7277" gradientUnits="userSpaceOnUse">
<stop stop-color="#FFC01A"/>
<stop offset="0.5" stop-color="#FFBA03"/>
<stop offset="1" stop-color="#FFB300"/>
</linearGradient>
</defs>
</svg>
