<svg width="48" height="48" viewBox="0 0 48 48" fill="none" xmlns="http://www.w3.org/2000/svg">
<path d="M7.13928 5C7.13928 6.18987 15.4684 9.16456 24.684 24.9232C24.684 24.9232 29.6624 19.7318 32.1266 18.0886C33.9114 16.8987 35.3536 16.5037 35.3536 16.5037C35.3536 13.5147 30.3418 5 28.557 5H7.13928Z" fill="#00D6B9"/>
<path d="M47.0001 17.4936C45.8102 16.7 42.657 15.3864 39.2659 15.7088C37.9362 15.8266 36.6239 16.0932 35.3536 16.5037C35.3536 16.5037 33.9115 16.8987 32.1267 18.0886C29.6636 19.7306 24.684 24.9232 24.684 24.9232C22.9849 26.5855 21.0549 28.1739 18.4431 29.3924C18.4431 29.3924 26.7722 32.962 32.1267 32.962C38.151 32.962 40.4558 28.7974 40.4558 28.7974C42.2406 24.8649 44.6203 20.4683 47.0001 17.4936Z" fill="#163C9A"/>
<path d="M0 16.3038V36.5316C0 37.7215 7.13924 43.0759 17.8481 43.0759C29.7468 43.0759 38.1354 33.9079 40.4557 28.7974C40.4557 28.7974 38.1509 32.962 32.1266 32.962C26.7722 32.962 18.443 29.3924 18.443 29.3924C12.3545 26.7283 6.50861 21.5666 3.08653 18.5443C1.15894 16.8428 0 15.8195 0 16.3038Z" fill="#3370FF"/>
</svg>
