<svg width="125" height="52" viewBox="0 0 125 52" fill="none" xmlns="http://www.w3.org/2000/svg">
<path fill-rule="evenodd" clip-rule="evenodd" d="M95.1923 26.2308L86.7468 11H60.6611L69.0385 26.2308H95.1923ZM53.9183 26.832C55.8253 28.4352 58.9583 28.7024 61.9551 28.7024H67.1995L75.645 44H54.1226C51.3982 44 48.6739 43.9332 45.9495 43.2652C43.2252 42.5972 40.9095 41.5283 38.73 39.8583C34.1667 36.6518 31.6466 32.2429 28.9904 27.4332C26.8109 23.5587 24.6995 19.6842 22.5881 15.8765C21.7708 14.2733 20.8854 12.67 20 11.1336H44.1787C44.3149 11.334 45.2003 12.9372 46.222 14.8745C47.6522 17.413 49.0825 20.0182 50.5128 22.5567C51.4663 24.1599 52.3518 25.6296 53.9183 26.832ZM78.9143 44L70.4687 28.7024H96.4864L105 44H78.9143Z" fill="black"/>
</svg>
