<svg width="114" height="84" viewBox="0 0 114 84" fill="none" xmlns="http://www.w3.org/2000/svg">
<g clip-path="url(#clip0_178_484)">
<path d="M19.3776 52.2199C19.3776 55.9058 20.1819 58.7238 21.2332 60.4327C21.7934 61.4056 22.6002 62.2123 23.5715 62.7708C24.5427 63.3293 25.644 63.6197 26.7633 63.6126C29.4665 63.6126 31.9395 62.9424 36.7053 56.3213C40.5233 51.017 45.0221 43.5883 48.0524 38.8972L53.1786 30.9893C56.7396 25.4974 60.8546 19.3923 65.587 15.2406C69.4417 11.8764 73.6034 10 77.7918 10C84.8237 10 91.5218 14.0913 96.648 21.7646C102.258 30.1684 104.991 40.7535 104.991 51.6771C104.991 58.1709 103.717 62.9424 101.547 66.712C99.4548 70.3577 95.3565 74 88.4848 74V63.6126C94.3686 63.6126 95.827 58.1843 95.827 51.9719C95.827 43.1192 93.7712 33.2947 89.2424 26.2748C86.0285 21.2955 81.8634 18.253 77.2812 18.253C72.3252 18.253 68.337 22.0059 63.8549 28.6974C61.472 32.2526 59.0257 36.5851 56.2791 41.4739L53.2554 46.8352C47.1814 57.6482 45.6428 60.111 42.6058 64.1755C37.2927 71.3194 32.7472 74 26.7633 74C19.6646 74 15.1759 70.9139 12.4125 66.263C10.1264 62.4733 9.01172 57.5007 9.01172 51.8346L19.3776 52.2199Z" fill="#0081FB"/>
<path d="M17.1836 22.4984C21.936 15.1435 28.7943 10 36.6606 10C41.2161 10 45.7449 11.3403 50.474 15.2306C55.6469 19.4693 61.1536 26.449 68.0386 37.9523L70.5049 42.0804C76.4588 52.039 79.8496 57.159 81.8287 59.5782C84.3784 62.681 86.1673 63.5992 88.4834 63.5992C94.3672 63.5992 95.8257 58.1709 95.8257 51.9585L104.97 51.6704C104.97 58.1642 103.695 62.9357 101.526 66.7053C99.4534 70.3577 95.3551 74 88.4834 74C84.2116 74 80.427 73.0685 76.2419 69.1045C73.0247 66.062 69.2634 60.6572 66.3699 55.7985L57.7628 41.3634C53.4443 34.119 49.4828 28.7175 47.19 26.2848C44.7203 23.641 41.5532 20.4645 36.4937 20.4645C32.3987 20.4645 28.9212 23.3495 26.011 27.7625L17.1836 22.4984Z" fill="url(#paint0_linear_178_484)"/>
<path d="M36.4951 20.4645C32.4001 20.4645 28.9225 23.3495 26.0123 27.7625C21.8974 33.9983 19.3776 43.2867 19.3776 52.2199C19.3776 55.9058 20.1819 58.7238 21.2332 60.4327L12.3958 66.263C10.1264 62.4733 9.01172 57.5007 9.01172 51.8346C9.01172 41.5309 11.8285 30.7916 17.185 22.4984C21.9374 15.1435 28.7957 10 36.6619 10L36.4951 20.4645Z" fill="url(#paint1_linear_178_484)"/>
</g>
<defs>
<linearGradient id="paint0_linear_178_484" x1="29.8156" y1="40.3414" x2="95.8971" y2="43.6655" gradientUnits="userSpaceOnUse">
<stop stop-color="#0064E1"/>
<stop offset="0.4" stop-color="#0064E1"/>
<stop offset="0.83" stop-color="#0073EE"/>
<stop offset="1" stop-color="#0082FB"/>
</linearGradient>
<linearGradient id="paint1_linear_178_484" x1="22.8352" y1="56.5759" x2="22.8352" y2="32.1152" gradientUnits="userSpaceOnUse">
<stop stop-color="#0082FB"/>
<stop offset="1" stop-color="#0064E0"/>
</linearGradient>
<clipPath id="clip0_178_484">
<rect width="96" height="64" fill="white" transform="translate(9 10)"/>
</clipPath>
</defs>
</svg>
