<svg width="158" height="84" viewBox="0 0 158 84" fill="none" xmlns="http://www.w3.org/2000/svg">
<g clip-path="url(#clip0_178_485)">
<path d="M143.041 40.5657L150.73 60.9618C148.464 60.6375 146.2 60.2314 143.894 59.8654L139.562 48.5958L135.112 58.9351C132.927 58.5692 130.782 58.4474 128.597 58.1632L136.407 40.3232L129.324 22.0381H135.879L139.844 32.2543L144.094 22.0381H150.729L143.041 40.5657ZM124.147 22.0381H118.198V57.3938C120.141 57.5158 122.163 57.5962 124.147 57.8388V22.0381ZM113.059 56.9878C107.637 56.6231 102.214 56.3001 96.671 56.1768V22.0382H102.74V50.4199C106.221 50.5004 109.7 50.7833 113.059 50.9455V56.9878ZM90.1953 35.865V41.9462H81.9005V55.7719H75.913V22.0381H92.9081V28.1192H81.9017V35.8652H90.1966L90.1953 35.865ZM65.7146 28.1192V56.0963C63.6907 56.0963 61.6281 56.0963 59.6443 56.1768V28.1192H53.372V22.0381H72.0256V28.1192H65.7146ZM46.8175 42.2694C44.1473 42.2694 40.9904 42.2694 38.7244 42.3926V51.4332C42.2853 51.1893 45.8462 50.9064 49.4471 50.7846V56.6231L32.6554 57.9621V22.0381H49.446V28.1192H38.7243V36.3101C41.0719 36.3101 44.6729 36.1882 46.8171 36.1882V42.2706L46.8175 42.2694ZM13.1896 38.8635V60.1093C11.0064 60.3532 9.06277 60.6374 7 60.9618V22.0381H12.7869L20.6766 44.1365V22.0381H26.7469V58.4474C24.6026 58.8133 22.4169 58.9351 20.1107 59.2583L13.1896 38.8635Z" fill="#E50914"/>
</g>
<defs>
<clipPath id="clip0_178_485">
<rect width="143.73" height="39" fill="white" transform="translate(7 22)"/>
</clipPath>
</defs>
</svg>
