<svg width="49" height="46" viewBox="0 0 49 46" fill="none" xmlns="http://www.w3.org/2000/svg">
<g clip-path="url(#clip0_717_460)">
<path fill-rule="evenodd" clip-rule="evenodd" d="M34.7301 20.4407C35.1283 21.4101 35.2056 21.8439 35.5651 22.6013C35.8571 23.2164 36.1984 23.6709 36.6596 24.0052C37.6038 24.69 38.7976 24.7152 40.2416 24.7152H49C49 18.1608 46.4191 11.8741 41.8245 7.23921C37.2291 2.60434 30.9979 0 24.5004 0C18.0021 0 11.7709 2.60434 7.17552 7.23921C2.58094 11.8741 0 18.1608 0 24.7152H8.75837C10.2024 24.7152 11.3962 24.69 12.3404 24.0052C12.8023 23.6709 13.1436 23.2164 13.4349 22.6013C13.7944 21.8439 13.8725 21.4101 14.2699 20.4407C15.9839 16.2664 20.0211 13.545 24.5004 13.545C28.9789 13.545 33.0161 16.2664 34.7301 20.4407Z" fill="black"/>
<path fill-rule="evenodd" clip-rule="evenodd" d="M37.3687 45.9697V45.9704C34.0961 42.6355 30.8242 39.3005 27.5509 35.9655C26.3901 34.7827 25.6024 34.0509 24.6241 34.0509C23.6449 34.0509 22.8572 34.7827 21.6965 35.9663C18.4239 39.3005 15.1513 42.6355 11.8787 45.9704C7.94472 43.5199 4.76972 39.986 2.72217 35.7759C5.62401 32.8195 8.52585 29.8624 11.4269 26.906C12.2933 26.0223 12.9108 25.4186 13.8142 25.0708C14.7116 24.7261 15.684 24.7153 17.0853 24.7153H32.162C33.5634 24.7153 34.5365 24.7261 35.4339 25.0708C36.3374 25.4186 36.954 26.0223 37.8204 26.906C40.7223 29.8624 43.6234 32.8195 46.5252 35.7759C44.4769 39.986 41.3034 43.5199 37.3687 45.9697Z" fill="black"/>
</g>
<defs>
<clipPath id="clip0_717_460">
<rect width="49" height="46" fill="white"/>
</clipPath>
</defs>
</svg>
