<svg version="1.1" id="Layer_1" xmlns:x="ns_extend;" xmlns:i="ns_ai;" xmlns:graph="ns_graphs;" xmlns="http://www.w3.org/2000/svg" xmlns:xlink="http://www.w3.org/1999/xlink" x="0px" y="0px" viewBox="0 0 156.8 82" style="enable-background:new 0 0 156.8 82;" xml:space="preserve">
 <style type="text/css">
  .st0{fill-rule:evenodd;clip-rule:evenodd;}
 </style>
 <metadata>
  <sfw xmlns="ns_sfw;">
   <slices>
   </slices>
   <sliceSourceBounds bottomLeftOrigin="true" height="82" width="156.8" x="-122.4" y="0">
   </sliceSourceBounds>
  </sfw>
 </metadata>
 <g>
  <path class="st0" d="M28.7,45.7C19.3,56.8,10,67.9,0.6,78.9l0.1-0.1C-0.6,80.3,0.1,82,2,82c3.4,0,7.4,0,10.4,0h0
		c1.3,0.1,2.7-0.3,3.8-1c16.6-8.8,43.1-22.9,59.2-31.6c0.5-0.2,0.9-0.5,1.2-1c0.3-0.5,0.4-1,0.3-1.6c0-3.4,0-8.2,0-11.6
		c0.1-0.5,0-1.1-0.3-1.6c-0.3-0.5-0.7-0.8-1.2-1h0C58.7,23.6,33.1,9.9,16.3,1h0c-1.2-0.7-2.5-1-3.8-1h0C9.2,0,5.2,0,2,0h0
		C0.1,0-0.6,1.6,0.6,3.1c0,0,18.9,22.3,28.1,33.2v0c1,1.2,1.6,1.5,3.2,1.6h0.1c5.5,0.4,10.8,0.7,16.1,1c5,0.3,10,0.5,15.2,0.9h0
		c0.2,0,0.3,0.1,0.5,0.2c0.1,0.1,0.2,0.3,0.2,0.5v1c0,0.2-0.1,0.3-0.2,0.5c-0.1,0.1-0.3,0.2-0.5,0.2c-5.2,0.4-10.3,0.6-15.3,0.9
		c-5.3,0.3-10.7,0.6-16.2,1h0C30.4,44.2,29.8,44.5,28.7,45.7L28.7,45.7z M128,45.7c9.4,11.1,18.8,22.1,28.1,33.2l0-0.1
		c1.3,1.5,0.6,3.1-1.4,3.1c-3.4,0-7.4,0-10.4,0c-1.3,0.1-2.7-0.3-3.8-1c-16.6-8.8-43.1-22.9-59.2-31.6c-0.5-0.2-0.9-0.5-1.2-1
		c-0.3-0.5-0.4-1-0.3-1.6c0-3.4,0-8.2,0-11.6c0-0.5,0.1-1.1,0.3-1.6c0.3-0.4,0.7-0.8,1.2-1h0c16.7-9,42.4-22.7,59.2-31.6h0
		c1.2-0.7,2.5-1,3.8-1c3.2,0,7.2-0.1,10.4,0h0c1.9,0,2.6,1.6,1.3,3.1c0,0-18.8,22.3-28.1,33.2l0,0c-1,1.2-1.6,1.5-3.2,1.6h-0.1
		c-5.5,0.4-10.8,0.7-16.1,1c-5,0.3-10,0.5-15.2,0.9h-0.1c-0.2,0-0.3,0.1-0.5,0.2c-0.1,0.1-0.2,0.3-0.2,0.5v1c0,0.2,0.1,0.3,0.2,0.5
		c0.1,0.1,0.3,0.2,0.5,0.2c5.2,0.4,10.3,0.6,15.3,0.9c5.3,0.3,10.7,0.6,16.2,1C126.4,44.2,127,44.5,128,45.7L128,45.7z">
  </path>
 </g>
</svg>