<svg width="87" height="84" viewBox="0 0 87 84" fill="none" xmlns="http://www.w3.org/2000/svg">
<g clip-path="url(#clip0_178_600)">
<path d="M43.4073 74.4948L52.4694 23.5353C61.0999 23.5353 63.846 24.4769 64.2383 28.3606C64.2383 28.3606 70.0443 26.203 72.9473 21.8092C61.5315 16.5133 50.0764 16.2779 50.0764 16.2779L43.4072 24.4377L36.6991 16.2778C36.6991 16.2778 25.2439 16.5133 13.8281 21.8092C16.7311 26.203 22.5371 28.3606 22.5371 28.3606C22.9294 24.4768 25.6363 23.5354 34.2276 23.5354L43.4072 74.4948H43.4073Z" fill="#D81E06"/>
<path d="M43.3645 13.9244C52.5835 13.846 63.1363 15.3367 73.9245 20.0443C75.376 17.4551 75.729 16.3174 75.729 16.3174C63.9601 11.6491 52.8974 10.0406 43.3646 10.0015C33.8709 10.0407 22.8081 11.6491 11 16.3174C11 16.3174 11.51 17.7297 12.8046 20.0443C23.6319 15.3367 34.1847 13.846 43.3645 13.9244Z" fill="#D81E06"/>
</g>
<defs>
<clipPath id="clip0_178_600">
<rect width="64.729" height="64.496" fill="white" transform="translate(11 10)"/>
</clipPath>
</defs>
</svg>
