<svg width="785" height="634" viewBox="0 0 785 634" fill="none" xmlns="http://www.w3.org/2000/svg">
<path fill-rule="evenodd" clip-rule="evenodd" d="M0 235.749C0 306.476 38.5613 371.094 98.1502 413.875C103.405 417.369 106.04 422.61 106.04 429.591C106.04 431.338 105.159 433.959 105.159 435.706C100.778 453.169 92.888 481.988 92.0145 482.854C91.141 485.475 90.2605 487.222 90.2605 489.843C90.2605 495.084 94.6421 499.444 99.9043 499.444C101.651 499.444 103.405 498.571 105.159 497.697L167.376 461.897C171.758 459.284 177.02 457.53 182.275 457.53C184.91 457.53 188.411 457.53 191.038 458.41C219.963 467.145 251.508 471.506 283.933 471.506C440.792 471.506 567.867 365.853 567.867 235.749C567.867 105.646 440.792 0 283.933 0C127.068 0 0 105.653 0 235.749Z" fill="url(#paint0_linear_1094_2424)"/>
<path fill-rule="evenodd" clip-rule="evenodd" d="M548.481 610.246C575.581 610.246 601.807 606.724 625.406 599.694C627.16 598.813 629.781 598.813 632.401 598.813C636.769 598.813 641.143 600.574 644.644 602.335L696.224 632.239C697.971 633.119 698.844 634 700.591 634C704.959 634 708.46 630.478 708.46 626.082C708.46 624.321 707.586 622.56 707.586 619.925C707.586 619.045 700.591 595.291 697.09 580.335C696.224 578.574 696.224 576.813 696.224 575.059C696.224 569.776 698.844 565.38 703.219 561.865C753.044 525.797 784.512 472.133 784.512 412.311C784.512 303.228 678.739 214.377 548.481 214.377C418.222 214.377 312.442 302.348 312.442 412.311C312.442 521.395 418.222 610.246 548.481 610.246Z" fill="url(#paint1_linear_1094_2424)"/>
<path fill-rule="evenodd" clip-rule="evenodd" d="M225.774 159.641C225.774 180.007 209.657 196.131 189.284 196.131C168.912 196.131 152.794 180.007 152.794 159.641C152.794 139.276 168.926 123.151 189.284 123.151C209.643 123.151 225.774 139.276 225.774 159.641ZM415.059 159.641C415.059 180.007 398.941 196.131 378.575 196.131C358.21 196.131 342.085 180.007 342.085 159.641C342.085 139.276 358.21 123.151 378.575 123.151C398.941 123.151 415.066 139.276 415.066 159.641" fill="#168743"/>
<path fill-rule="evenodd" clip-rule="evenodd" d="M597.51 351.208C597.51 368.946 611.704 383.133 629.442 383.133C647.18 383.133 661.368 368.946 661.368 351.208C661.368 333.47 647.18 319.282 629.442 319.282C611.704 319.282 597.51 333.47 597.51 351.208ZM440.151 351.208C440.151 368.946 454.338 383.133 472.076 383.133C489.814 383.133 504.009 368.946 504.009 351.208C504.009 333.47 489.814 319.282 472.076 319.282C454.338 319.282 440.151 333.47 440.151 351.208Z" fill="#919191"/>
<defs>
<linearGradient id="paint0_linear_1094_2424" x1="284.251" y1="470.227" x2="284.251" y2="2.1826" gradientUnits="userSpaceOnUse">
<stop stop-color="#05CD66"/>
<stop offset="1" stop-color="#9EEE69"/>
</linearGradient>
<linearGradient id="paint1_linear_1094_2424" x1="548.897" y1="606.871" x2="548.897" y2="214.225" gradientUnits="userSpaceOnUse">
<stop stop-color="#E4E6E6"/>
<stop offset="1" stop-color="#F0F0F0"/>
</linearGradient>
</defs>
</svg>
